<mxfile host="app.diagrams.net" agent="Mozilla/5.0 (Windows NT 10.0; Win64; x64) AppleWebKit/537.36 (KHTML, like Gecko) Chrome/131.0.0.0 Safari/537.36" version="24.8.3">
  <diagram name="Page-1" id="lOk4NJGjicJodlBkweAv">
    <mxGraphModel dx="1050" dy="522" grid="0" gridSize="10" guides="1" tooltips="1" connect="1" arrows="1" fold="1" page="1" pageScale="1" pageWidth="1100" pageHeight="850" math="0" shadow="0">
      <root>
        <mxCell id="0" />
        <mxCell id="1" parent="0" />
        <mxCell id="vay1ctLB9J4WhF6eqe8U-1" value="&lt;font style=&quot;font-size: 16px;&quot;&gt;&lt;b&gt;SALES_FACT&amp;nbsp;&lt;/b&gt;&lt;/font&gt;&lt;b style=&quot;font-size: 16px; background-color: initial;&quot;&gt;(Transaction Data)&amp;nbsp;&lt;/b&gt;" style="swimlane;fontStyle=0;childLayout=stackLayout;horizontal=1;startSize=30;horizontalStack=0;resizeParent=1;resizeParentMax=0;resizeLast=0;collapsible=1;marginBottom=0;whiteSpace=wrap;html=1;labelBackgroundColor=none;" vertex="1" parent="1">
          <mxGeometry x="397" y="82" width="256" height="195" as="geometry" />
        </mxCell>
        <mxCell id="vay1ctLB9J4WhF6eqe8U-2" value="&lt;span style=&quot;font-size: 16px; background-color: initial;&quot;&gt;ORDER_ID&amp;nbsp;&lt;/span&gt;&lt;br&gt;&lt;span style=&quot;font-size: 16px; background-color: initial;&quot;&gt;ORDER_DATE&lt;/span&gt;&lt;br&gt;&lt;span style=&quot;font-size: 16px; background-color: initial;&quot;&gt;CUSTOMER_ID&amp;nbsp;&lt;/span&gt;&lt;br&gt;&lt;span style=&quot;font-size: 16px; background-color: initial;&quot;&gt;PRODUCT_ID&amp;nbsp;&lt;/span&gt;&lt;br&gt;&lt;span style=&quot;font-size: 16px; background-color: initial;&quot;&gt;STORE_ID&lt;/span&gt;&lt;br&gt;&lt;span style=&quot;font-size: 16px; background-color: initial;&quot;&gt;SUPPLIER_ID&amp;nbsp;&lt;/span&gt;&lt;br&gt;&lt;span style=&quot;font-size: 16px; background-color: initial;&quot;&gt;QUANTITY&amp;nbsp;&lt;/span&gt;&lt;div&gt;&lt;span style=&quot;font-size: 16px; background-color: initial;&quot;&gt;TOTAL_SALE&amp;nbsp;&lt;/span&gt;&lt;/div&gt;" style="text;strokeColor=none;fillColor=none;align=left;verticalAlign=middle;spacingLeft=4;spacingRight=4;overflow=hidden;points=[[0,0.5],[1,0.5]];portConstraint=eastwest;rotatable=0;whiteSpace=wrap;html=1;labelBackgroundColor=none;" vertex="1" parent="vay1ctLB9J4WhF6eqe8U-1">
          <mxGeometry y="30" width="256" height="165" as="geometry" />
        </mxCell>
        <mxCell id="vay1ctLB9J4WhF6eqe8U-5" value="&lt;b&gt;&lt;font style=&quot;font-size: 16px;&quot;&gt;CUSTOMERS_DIM&amp;nbsp;&lt;/font&gt;&lt;/b&gt;" style="swimlane;fontStyle=0;childLayout=stackLayout;horizontal=1;startSize=30;horizontalStack=0;resizeParent=1;resizeParentMax=0;resizeLast=0;collapsible=1;marginBottom=0;whiteSpace=wrap;html=1;labelBackgroundColor=none;" vertex="1" parent="1">
          <mxGeometry x="785" width="190" height="110" as="geometry" />
        </mxCell>
        <mxCell id="vay1ctLB9J4WhF6eqe8U-6" value="&lt;div style=&quot;font-size: 16px;&quot;&gt;&lt;font style=&quot;font-size: 16px;&quot;&gt;CUSTOMER_ID&lt;/font&gt;&lt;/div&gt;&lt;div style=&quot;font-size: 16px;&quot;&gt;&lt;font style=&quot;background-color: initial;&quot;&gt;CUSTOMER_NAME &lt;/font&gt;&lt;span style=&quot;background-color: initial;&quot;&gt;GENDER&lt;/span&gt;&lt;/div&gt;" style="text;strokeColor=none;fillColor=none;align=left;verticalAlign=middle;spacingLeft=4;spacingRight=4;overflow=hidden;points=[[0,0.5],[1,0.5]];portConstraint=eastwest;rotatable=0;whiteSpace=wrap;html=1;labelBackgroundColor=none;" vertex="1" parent="vay1ctLB9J4WhF6eqe8U-5">
          <mxGeometry y="30" width="190" height="80" as="geometry" />
        </mxCell>
        <mxCell id="vay1ctLB9J4WhF6eqe8U-9" value="&lt;b&gt;&lt;font style=&quot;font-size: 16px;&quot;&gt;PRODUCTS_DIM&amp;nbsp;&lt;/font&gt;&lt;/b&gt;" style="swimlane;fontStyle=0;childLayout=stackLayout;horizontal=1;startSize=30;horizontalStack=0;resizeParent=1;resizeParentMax=0;resizeLast=0;collapsible=1;marginBottom=0;whiteSpace=wrap;html=1;labelBackgroundColor=none;" vertex="1" parent="1">
          <mxGeometry x="60" width="240" height="190" as="geometry" />
        </mxCell>
        <mxCell id="vay1ctLB9J4WhF6eqe8U-10" value="&lt;div style=&quot;font-size: 16px;&quot;&gt;&lt;font style=&quot;font-size: 16px;&quot;&gt;PRODUCT_ID&amp;nbsp;&lt;/font&gt;&lt;/div&gt;&lt;div style=&quot;font-size: 16px;&quot;&gt;&lt;font style=&quot;font-size: 16px;&quot;&gt;PRODUCT_NAME&lt;/font&gt;&lt;/div&gt;&lt;div style=&quot;font-size: 16px;&quot;&gt;&lt;font style=&quot;font-size: 16px;&quot;&gt;PRODUCT_PRICE&lt;/font&gt;&lt;/div&gt;&lt;div style=&quot;font-size: 16px;&quot;&gt;&lt;font style=&quot;font-size: 16px;&quot;&gt;SUPPLIER_ID&amp;nbsp;&lt;/font&gt;&lt;/div&gt;&lt;div style=&quot;font-size: 16px;&quot;&gt;&lt;font style=&quot;font-size: 16px;&quot;&gt;SUPPLIER_NAME&lt;/font&gt;&lt;/div&gt;&lt;div style=&quot;font-size: 16px;&quot;&gt;&lt;font style=&quot;font-size: 16px;&quot;&gt;STORE_ID&amp;nbsp;&lt;/font&gt;&lt;/div&gt;&lt;div style=&quot;font-size: 16px;&quot;&gt;&lt;span style=&quot;background-color: initial;&quot;&gt;STORE_NAME&lt;/span&gt;&lt;/div&gt;" style="text;strokeColor=none;fillColor=none;align=left;verticalAlign=middle;spacingLeft=4;spacingRight=4;overflow=hidden;points=[[0,0.5],[1,0.5]];portConstraint=eastwest;rotatable=0;whiteSpace=wrap;html=1;labelBackgroundColor=none;" vertex="1" parent="vay1ctLB9J4WhF6eqe8U-9">
          <mxGeometry y="30" width="240" height="160" as="geometry" />
        </mxCell>
        <mxCell id="vay1ctLB9J4WhF6eqe8U-13" value="&lt;span style=&quot;font-size: 16px;&quot;&gt;&lt;b&gt;SUPPLIER_DIM&amp;nbsp;&lt;/b&gt;&lt;/span&gt;" style="swimlane;fontStyle=0;childLayout=stackLayout;horizontal=1;startSize=30;horizontalStack=0;resizeParent=1;resizeParentMax=0;resizeLast=0;collapsible=1;marginBottom=0;whiteSpace=wrap;html=1;labelBackgroundColor=none;" vertex="1" parent="1">
          <mxGeometry x="785" y="253" width="190" height="110" as="geometry" />
        </mxCell>
        <mxCell id="vay1ctLB9J4WhF6eqe8U-14" value="&lt;div style=&quot;font-size: 16px;&quot;&gt;&lt;div&gt;SUPPLIER_ID&lt;/div&gt;&lt;div&gt;&lt;span style=&quot;background-color: initial;&quot;&gt;SUPPLIER_NAME&lt;/span&gt;&lt;/div&gt;&lt;/div&gt;" style="text;strokeColor=none;fillColor=none;align=left;verticalAlign=middle;spacingLeft=4;spacingRight=4;overflow=hidden;points=[[0,0.5],[1,0.5]];portConstraint=eastwest;rotatable=0;whiteSpace=wrap;html=1;labelBackgroundColor=none;" vertex="1" parent="vay1ctLB9J4WhF6eqe8U-13">
          <mxGeometry y="30" width="190" height="80" as="geometry" />
        </mxCell>
        <mxCell id="vay1ctLB9J4WhF6eqe8U-15" value="&lt;span style=&quot;font-size: 16px;&quot;&gt;&lt;b&gt;STORE_DIM&amp;nbsp;&lt;/b&gt;&lt;/span&gt;" style="swimlane;fontStyle=0;childLayout=stackLayout;horizontal=1;startSize=30;horizontalStack=0;resizeParent=1;resizeParentMax=0;resizeLast=0;collapsible=1;marginBottom=0;whiteSpace=wrap;html=1;labelBackgroundColor=none;" vertex="1" parent="1">
          <mxGeometry x="107" y="260" width="190" height="110" as="geometry" />
        </mxCell>
        <mxCell id="vay1ctLB9J4WhF6eqe8U-16" value="&lt;div style=&quot;font-size: 16px;&quot;&gt;&lt;div&gt;STORE_ID&lt;/div&gt;&lt;div&gt;&lt;span style=&quot;background-color: initial;&quot;&gt;STORE_NAME&lt;/span&gt;&lt;/div&gt;&lt;/div&gt;" style="text;strokeColor=none;fillColor=none;align=left;verticalAlign=middle;spacingLeft=4;spacingRight=4;overflow=hidden;points=[[0,0.5],[1,0.5]];portConstraint=eastwest;rotatable=0;whiteSpace=wrap;html=1;labelBackgroundColor=none;" vertex="1" parent="vay1ctLB9J4WhF6eqe8U-15">
          <mxGeometry y="30" width="190" height="80" as="geometry" />
        </mxCell>
        <mxCell id="vay1ctLB9J4WhF6eqe8U-19" style="edgeStyle=orthogonalEdgeStyle;rounded=0;orthogonalLoop=1;jettySize=auto;html=1;exitX=0;exitY=0.5;exitDx=0;exitDy=0;entryX=0.994;entryY=0.113;entryDx=0;entryDy=0;entryPerimeter=0;labelBackgroundColor=none;fontColor=default;" edge="1" parent="1" source="vay1ctLB9J4WhF6eqe8U-2" target="vay1ctLB9J4WhF6eqe8U-15">
          <mxGeometry relative="1" as="geometry" />
        </mxCell>
        <mxCell id="vay1ctLB9J4WhF6eqe8U-20" style="edgeStyle=orthogonalEdgeStyle;rounded=0;orthogonalLoop=1;jettySize=auto;html=1;exitX=0;exitY=0.5;exitDx=0;exitDy=0;entryX=1.012;entryY=0.095;entryDx=0;entryDy=0;entryPerimeter=0;labelBackgroundColor=none;fontColor=default;" edge="1" parent="1" source="vay1ctLB9J4WhF6eqe8U-2" target="vay1ctLB9J4WhF6eqe8U-9">
          <mxGeometry relative="1" as="geometry" />
        </mxCell>
        <mxCell id="vay1ctLB9J4WhF6eqe8U-21" style="edgeStyle=orthogonalEdgeStyle;rounded=0;orthogonalLoop=1;jettySize=auto;html=1;exitX=1;exitY=0.5;exitDx=0;exitDy=0;entryX=0;entryY=0.25;entryDx=0;entryDy=0;labelBackgroundColor=none;fontColor=default;" edge="1" parent="1" source="vay1ctLB9J4WhF6eqe8U-2" target="vay1ctLB9J4WhF6eqe8U-13">
          <mxGeometry relative="1" as="geometry" />
        </mxCell>
        <mxCell id="vay1ctLB9J4WhF6eqe8U-22" style="edgeStyle=orthogonalEdgeStyle;rounded=0;orthogonalLoop=1;jettySize=auto;html=1;exitX=1;exitY=0.5;exitDx=0;exitDy=0;entryX=-0.007;entryY=-0.03;entryDx=0;entryDy=0;entryPerimeter=0;labelBackgroundColor=none;fontColor=default;" edge="1" parent="1" source="vay1ctLB9J4WhF6eqe8U-2" target="vay1ctLB9J4WhF6eqe8U-6">
          <mxGeometry relative="1" as="geometry" />
        </mxCell>
      </root>
    </mxGraphModel>
  </diagram>
</mxfile>
